/* XPM */
static char * fields_xpm[] = {
"20 20 160 2",
"  	c None",
". 	c #FD8D8D",
"+ 	c #D06767",
"@ 	c #FFA3A3",
"# 	c #FFAFAF",
"$ 	c #C28383",
"% 	c #5B0000",
"& 	c #B24040",
"* 	c #F98585",
"= 	c #FF9898",
"- 	c #F49292",
"; 	c #D76262",
"> 	c #AF4242",
", 	c #410000",
"' 	c #610000",
") 	c #C04545",
"! 	c #D14E4E",
"~ 	c #D45C5C",
"{ 	c #EF8484",
"] 	c #FE8E8E",
"^ 	c #EF7A7A",
"/ 	c #310404",
"( 	c #812727",
"_ 	c #891D1D",
": 	c #C04C4C",
"< 	c #FE8A8A",
"[ 	c #FE8B8B",
"} 	c #FA8383",
"| 	c #EC7474",
"1 	c #D96262",
"2 	c #7C3030",
"3 	c #752525",
"4 	c #BB4646",
"5 	c #D15959",
"6 	c #D76060",
"7 	c #780E0E",
"8 	c #BE4949",
"9 	c #F77E7E",
"0 	c #F07878",
"a 	c #E26969",
"b 	c #C74545",
"c 	c #AC2121",
"d 	c #6C0808",
"e 	c #7E1313",
"f 	c #9E2626",
"g 	c #AC3333",
"h 	c #BB4242",
"i 	c #CA5252",
"j 	c #D96060",
"k 	c #D35D5D",
"l 	c #7B0D0D",
"m 	c #B84040",
"n 	c #D44E4E",
"o 	c #B82A2A",
"p 	c #970F0F",
"q 	c #820202",
"r 	c #5A0000",
"s 	c #6F0404",
"t 	c #9B2323",
"u 	c #A93030",
"v 	c #B63D3D",
"w 	c #C44A4A",
"x 	c #D05656",
"y 	c #DD5E5E",
"z 	c #CE4848",
"A 	c #921919",
"B 	c #9B1414",
"C 	c #800000",
"D 	c #7E0000",
"E 	c #7D0000",
"F 	c #470000",
"G 	c #4F0000",
"H 	c #820F0F",
"I 	c #A62C2C",
"J 	c #B43A3A",
"K 	c #D75656",
"L 	c #E85D5D",
"M 	c #C04646",
"N 	c #B94848",
"O 	c #BC4848",
"P 	c #770505",
"Q 	c #5E0000",
"R 	c #140000",
"S 	c #280000",
"T 	c #640000",
"U 	c #C35252",
"V 	c #E17070",
"W 	c #AE3C3C",
"X 	c #C74C4C",
"Y 	c #CB5050",
"Z 	c #CC5151",
"` 	c #B33C3C",
" .	c #610101",
"..	c #1E0000",
"+.	c #000000",
"@.	c #4A0000",
"#.	c #973434",
"$.	c #9F2A2A",
"%.	c #B03535",
"&.	c #B83D3D",
"*.	c #BE4242",
"=.	c #C14646",
"-.	c #C24747",
";.	c #C04444",
">.	c #9E2C2C",
",.	c #1B0000",
"'.	c #5C0000",
").	c #891313",
"!.	c #AB2F2F",
"~.	c #B13535",
"{.	c #B63A3A",
"].	c #B93D3D",
"^.	c #BA3D3D",
"/.	c #B83C3C",
"(.	c #B43838",
"_.	c #8E2222",
":.	c #3C0000",
"<.	c #6B0000",
"[.	c #9B2121",
"}.	c #AA2E2E",
"|.	c #AF3232",
"1.	c #B23535",
"2.	c #B13434",
"3.	c #BE3838",
"4.	c #C73636",
"5.	c #831616",
"6.	c #530000",
"7.	c #790606",
"8.	c #A42727",
"9.	c #A82B2B",
"0.	c #AA2D2D",
"a.	c #C23E3E",
"b.	c #DB4B4B",
"c.	c #C13333",
"d.	c #8B0A0A",
"e.	c #2D0000",
"f.	c #620000",
"g.	c #871111",
"h.	c #B93B3B",
"i.	c #EA5E5E",
"j.	c #E55454",
"k.	c #A01B1B",
"l.	c #7C0000",
"m.	c #490000",
"n.	c #861717",
"o.	c #F77878",
"p.	c #BA3535",
"q.	c #800202",
"r.	c #160000",
"s.	c #1F0000",
"t.	c #6C0E0E",
"u.	c #880A0A",
"v.	c #740000",
"w.	c #350000",
"x.	c #020000",
"y.	c #450000",
"z.	c #510000",
"A.	c #0C0000",
"B.	c #690000",
"C.	c #200000",
"                  . .                   ",
"              + . @ # $                 ",
"            % & * = - ; >               ",
"            , ' ) ! ~ { ] ^             ",
"            / ( _ : < [ } | 1 2         ",
"          3 4 5 6 7 8 9 0 a b c d       ",
"      e f g h i j k l m n o p q r       ",
"      s t u v w x y z A B C D E F       ",
"      G H I J K L M N O P D E Q R       ",
"      S T U V : W X Y Z `  ...+.        ",
"        @.#.$.%.&.*.=.-.;.>.            ",
"        ,.'.).!.~.{.].^./.(._.          ",
"          :.<.[.}.|.~.1.2.3.4.5.        ",
"            6.7.8.9.0.a.b.c.d.%         ",
"            e.f.g.h.i.j.k.E l.m.        ",
"              m.n.o.p.q.E l.f.r.        ",
"              s.t.u.E l.v.w.x.          ",
"                y.E l.z.A.              ",
"                  B.C.                  ",
"                                        "};
