/* XPM */
static char * partyline_xpm[] = {
"20 20 140 2",
"  	c None",
". 	c #6F6F45",
"+ 	c #6E6E3C",
"@ 	c #68683D",
"# 	c #686840",
"$ 	c #686843",
"% 	c #686845",
"& 	c #686846",
"* 	c #686844",
"= 	c #686842",
"- 	c #68683E",
"; 	c #67673A",
"> 	c #8E8E4B",
", 	c #686853",
"' 	c #6D6D4F",
") 	c #FEFED4",
"! 	c #FEFED8",
"~ 	c #FEFEDC",
"{ 	c #FEFEE0",
"] 	c #FEFEE2",
"^ 	c #FEFEE5",
"/ 	c #FEFEE6",
"( 	c #FEFEE4",
"_ 	c #FEFEDE",
": 	c #FEFEDB",
"< 	c #FEFE8C",
"[ 	c #828241",
"} 	c #6B6B6B",
"| 	c #4E4E2A",
"1 	c #FEFED7",
"2 	c #FEFE9B",
"3 	c #FEFEA7",
"4 	c #FEFEB2",
"5 	c #FEFEBC",
"6 	c #FEFEC2",
"7 	c #FEFEC6",
"8 	c #FEFEC5",
"9 	c #FEFEC0",
"0 	c #FEFEB8",
"a 	c #FEFEAD",
"b 	c #FEFEA1",
"c 	c #FEFE95",
"d 	c #59594A",
"e 	c #51512B",
"f 	c #FEFED9",
"g 	c #FEFEA2",
"h 	c #FEFEAF",
"i 	c #FEFEC7",
"j 	c #FEFED0",
"k 	c #FEFED2",
"l 	c #FEFECC",
"m 	c #FEFEB6",
"n 	c #FEFEA9",
"o 	c #474730",
"p 	c #51512D",
"q 	c #FEFEC4",
"r 	c #FEFED1",
"s 	c #FEFECB",
"t 	c #FEFEBE",
"u 	c #3C3C27",
"v 	c #FEFEAB",
"w 	c #FEFEBA",
"x 	c #FEFEC9",
"y 	c #FEFEEF",
"z 	c #FEFEEC",
"A 	c #FEFEB3",
"B 	c #FEFEA4",
"C 	c #FEFEAC",
"D 	c #FEFEBB",
"E 	c #FEFEDA",
"F 	c #FEFEEA",
"G 	c #FEFEF7",
"H 	c #FEFEF2",
"I 	c #FEFEE3",
"J 	c #FEFED3",
"K 	c #FEFEB4",
"L 	c #FEFEA5",
"M 	c #3C3C28",
"N 	c #FEFEAA",
"O 	c #FEFEEE",
"P 	c #FEFEEB",
"Q 	c #FEFEDF",
"R 	c #FEFEA3",
"S 	c #51512C",
"T 	c #FEFEB5",
"U 	c #FEFEC3",
"V 	c #FEFED6",
"W 	c #FEFECA",
"X 	c #FEFEBD",
"Y 	c #FEFEA0",
"Z 	c #FEFECE",
"` 	c #FEFEC1",
" .	c #3C3C26",
"..	c #4B4B2B",
"+.	c #FEFE9A",
"@.	c #FEFEA6",
"#.	c #FEFEB1",
"$.	c #FEFE94",
"%.	c #232319",
"&.	c #FAFA83",
"*.	c #FEFE91",
"=.	c #FEFE9C",
"-.	c #FEFEAE",
";.	c #FEFE97",
">.	c #75753A",
",.	c #1E1E1E",
"'.	c #33331F",
").	c #3F3F22",
"!.	c #4A4A2B",
"~.	c #4A4A2D",
"{.	c #4A4A30",
"].	c #4A4A31",
"^.	c #B9B97B",
"/.	c #FEFE9E",
"(.	c #DEDE84",
"_.	c #494929",
":.	c #5A5A2F",
"<.	c #0D0D06",
"[.	c #4D4D4D",
"}.	c #818181",
"|.	c #3A3A3A",
"1.	c #222222",
"2.	c #1F1F1F",
"3.	c #222220",
"4.	c #797949",
"5.	c #5F5F34",
"6.	c #141414",
"7.	c #2A2A2A",
"8.	c #525252",
"9.	c #4E4E44",
"0.	c #818146",
"a.	c #FEFE84",
"b.	c #5F5F2F",
"c.	c #5F5F5F",
"d.	c #494938",
"e.	c #81813C",
"f.	c #67672E",
"g.	c #6C6C6C",
"h.	c #3C3C2D",
"i.	c #555522",
"                                        ",
"      . + @ # $ % & & * = - ; > ,       ",
"    ' ) ! ~ { ] ^ / ^ ( ] _ : < [ }     ",
"    | 1 2 3 4 5 6 7 8 9 0 a b c | d     ",
"    e f g h 5 i j ) k l 6 m n 2 e o     ",
"    p : 3 m q r ~ ] { 1 s t h b p u     ",
"    p ~ v w x ! / y z { r 6 A B p u     ",
"    p ~ C D s E F G H I J q K L p M     ",
"    p ~ N w x 1 ^ O P Q r 6 A R p u     ",
"    S : 3 T U j E { Q V W X h Y S u     ",
"    e f b h D 7 Z k r s ` T n 2 e  .    ",
"    ..1 +.@.#.w ` q U t m C b $...%.    ",
"    , &.*.=.@.-.K m T #.v g ;.< >.,.    ",
"      '.).!.~.{.].^.3 B /.(._.:.<.[.    ",
"      }.|.1.2.2.2.3.4.;.*.5.6.7.8.      ",
"                    9.0.a.b.c.          ",
"                      d.e.f.g.          ",
"                        h.i.            ",
"                                        ",
"                                        "};
