/* XPM */
static char * team24_xpm[] = {
"24 24 274 2",
"  	c None",
". 	c #60605D",
"+ 	c #CECCC7",
"@ 	c #F8F5EB",
"# 	c #F5F2E6",
"$ 	c #CFCBBC",
"% 	c #767264",
"& 	c #424240",
"* 	c #ECEBE8",
"= 	c #FEFDFA",
"- 	c #FCFAF1",
"; 	c #FCF7E8",
"> 	c #FAF4DE",
", 	c #EAE2C7",
"' 	c #736E5E",
") 	c #94928B",
"! 	c #EEE6CD",
"~ 	c #F7F3E2",
"{ 	c #FAF6E9",
"] 	c #FAF5E7",
"^ 	c #EFE8D0",
"/ 	c #E7D8B0",
"( 	c #B9B196",
"_ 	c #000000",
": 	c #BBB8AD",
"< 	c #C8A25E",
"[ 	c #C48B31",
"} 	c #B88431",
"| 	c #B68432",
"1 	c #BF862E",
"2 	c #CC9A48",
"3 	c #EBE0BA",
"4 	c #646051",
"5 	c #2C2C28",
"6 	c #C6984D",
"7 	c #E2A038",
"8 	c #E4A23C",
"9 	c #DD9A34",
"0 	c #C2892F",
"a 	c #E6D2A0",
"b 	c #888371",
"c 	c #704E19",
"d 	c #DE9932",
"e 	c #DE9A32",
"f 	c #D9952F",
"g 	c #BB8229",
"h 	c #D5BD89",
"i 	c #948D72",
"j 	c #070401",
"k 	c #402609",
"l 	c #281806",
"m 	c #1A0F04",
"n 	c #3C2308",
"o 	c #2D1A06",
"p 	c #281B07",
"q 	c #DA942C",
"r 	c #DB962D",
"s 	c #D59029",
"t 	c #A57124",
"u 	c #CFBB8C",
"v 	c #89826C",
"w 	c #482B0A",
"x 	c #D47D1F",
"y 	c #D88222",
"z 	c #D98423",
"A 	c #D68020",
"B 	c #D07A1C",
"C 	c #8F5212",
"D 	c #100902",
"E 	c #D89028",
"F 	c #D89128",
"G 	c #CB8824",
"H 	c #7C5316",
"I 	c #CFC4A1",
"J 	c #736D55",
"K 	c #945612",
"L 	c #D27B1D",
"M 	c #D47E20",
"N 	c #D17B1D",
"O 	c #CC761A",
"P 	c #A86014",
"Q 	c #392006",
"R 	c #805715",
"S 	c #CC8521",
"T 	c #CC8621",
"U 	c #9F6718",
"V 	c #232A0C",
"W 	c #D4CCA2",
"X 	c #504B3C",
"Y 	c #A75E13",
"Z 	c #CC741A",
"` 	c #CC751A",
" .	c #CA7318",
"..	c #B46514",
"+.	c #402506",
"@.	c #1E561E",
"#.	c #453C0F",
"$.	c #54360C",
"%.	c #233B12",
"&.	c #1D591D",
"*.	c #A5A07C",
"=.	c #344428",
"-.	c #133116",
";.	c #90500F",
">.	c #C77016",
",.	c #9C5812",
"'.	c #864C10",
").	c #864B0F",
"!.	c #B66613",
"~.	c #AB5E10",
"{.	c #37320C",
"].	c #297929",
"^.	c #277327",
"/.	c #246A24",
"(.	c #226422",
"_.	c #344624",
":.	c #226922",
"<.	c #267526",
"[.	c #1F5225",
"}.	c #4C2A07",
"|.	c #C36A13",
"1.	c #462607",
"2.	c #AE6011",
"3.	c #76400C",
"4.	c #7F450C",
"5.	c #85480C",
"6.	c #1E5A1E",
"7.	c #329432",
"8.	c #319031",
"9.	c #2E882E",
"0.	c #2D842D",
"a.	c #2A812A",
"b.	c #297D29",
"c.	c #287D28",
"d.	c #297E29",
"e.	c #287E28",
"f.	c #133318",
"g.	c #080A0D",
"h.	c #2E3944",
"i.	c #74400D",
"j.	c #402205",
"k.	c #3F2105",
"l.	c #613408",
"m.	c #2D231A",
"n.	c #1C3327",
"o.	c #205F20",
"p.	c #359E35",
"q.	c #349B34",
"r.	c #339933",
"s.	c #319431",
"t.	c #2E8D2E",
"u.	c #2B862B",
"v.	c #298229",
"w.	c #277C27",
"x.	c #256E28",
"y.	c #414951",
"z.	c #839AB1",
"A.	c #748DA7",
"B.	c #576A7D",
"C.	c #2F2B27",
"D.	c #201104",
"E.	c #1D140B",
"F.	c #393C40",
"G.	c #506376",
"H.	c #5A7189",
"I.	c #3D4F62",
"J.	c #152D1C",
"K.	c #2C822C",
"L.	c #308F30",
"M.	c #2E8C2E",
"N.	c #2C872C",
"O.	c #287B28",
"P.	c #257725",
"Q.	c #246C29",
"R.	c #5C6874",
"S.	c #7992AD",
"T.	c #738FAB",
"U.	c #7692AD",
"V.	c #657F99",
"W.	c #BAC3CD",
"X.	c #D0D0D0",
"Y.	c #CCCCCD",
"Z.	c #899DB1",
"`.	c #5F7891",
" +	c #627E99",
".+	c #5F7B98",
"++	c #516B85",
"@+	c #14261C",
"#+	c #2A802A",
"$+	c #2B842B",
"%+	c #267726",
"&+	c #246A2A",
"*+	c #0A210C",
"=+	c #4B525A",
"-+	c #708AA4",
";+	c #6A86A2",
">+	c #6D89A4",
",+	c #6F8AA6",
"'+	c #708CA7",
")+	c #8293A5",
"!+	c #FCFDFD",
"~+	c #E6EAEE",
"{+	c #6884A0",
"]+	c #64809C",
"^+	c #607C98",
"/+	c #5A7793",
"(+	c #55728E",
"_+	c #415871",
":+	c #0D280D",
"<+	c #174218",
"[+	c #183F1E",
"}+	c #122A1A",
"|+	c #60758B",
"1+	c #66829E",
"2+	c #546E86",
"3+	c #E8EBEE",
"4+	c #AFBECC",
"5+	c #627E9A",
"6+	c #8097AD",
"7+	c #D3DBE2",
"8+	c #6D869E",
"9+	c #506D8A",
"0+	c #4B6884",
"a+	c #19242F",
"b+	c #55718E",
"c+	c #5A7692",
"d+	c #5D7995",
"e+	c #617D99",
"f+	c #617D9A",
"g+	c #57718B",
"h+	c #BEC6CD",
"i+	c #869BB0",
"j+	c #5B7894",
"k+	c #8DA0B4",
"l+	c #8498AC",
"m+	c #637C96",
"n+	c #4B6885",
"o+	c #466380",
"p+	c #202E3C",
"q+	c #435B73",
"r+	c #53708C",
"s+	c #56728F",
"t+	c #587491",
"u+	c #597692",
"v+	c #597591",
"w+	c #909FAE",
"x+	c #5F7A95",
"y+	c #526E8B",
"z+	c #4E6A88",
"A+	c #4A6684",
"B+	c #466280",
"C+	c #415E7B",
"D+	c #16212C",
"E+	c #131B22",
"F+	c #3E566E",
"G+	c #4E6A86",
"H+	c #516E8A",
"I+	c #526F8C",
"J+	c #536F8C",
"K+	c #6A7F92",
"L+	c #4E6B87",
"M+	c #486482",
"N+	c #44607E",
"O+	c #3B5672",
"P+	c #253749",
"Q+	c #121921",
"R+	c #212D3A",
"S+	c #263442",
"T+	c #263543",
"U+	c #3A4653",
"V+	c #253342",
"W+	c #243241",
"X+	c #18222D",
"Y+	c #06080B",
"                                                ",
"                        . + @ # $ %             ",
"                      & * = - ; > , '           ",
"                      ) ! ~ { ] ^ / (           ",
"              _ _ _ _ : < [ } | 1 2 3 4         ",
"            _ _ _ _ _ 5 6 7 8 8 9 0 a b         ",
"          _ _ _ _ _ _ _ c d e e f g h i         ",
"          j k l _ m n o p q r r s t u v         ",
"          w x y z A B C D E F F G H I J         ",
"          K L x M N O P Q R S T U V W X         ",
"          Y Z ` O `  ...+.@.#.$.%.&.*.=.-.      ",
"          ;.>.,.'.).!.~.{.].].^./.(._.:.<.[.    ",
"          }.|.1.2.3.4.5.6.7.8.9.0.a.b.c.d.e.f.  ",
"        g.h.i.j.j.k.l.m.n.o.p.q.r.s.t.u.v.w.x.  ",
"      y.z.A.B.C.D.E.F.G.H.I.J.K.L.M.N.a.O.P.Q.  ",
"    R.S.T.U.V.W.X.Y.Z.`. +.+++@+#+$+#+O.%+&+*+  ",
"  =+-+;+>+,+'+)+!+~+{+]+^+/+(+_+:+<+[+}+_       ",
"  |+^+]+1+{+{+2+3+4+5+6+7+8+9+0+a+              ",
"_ b+c+d+.+e+f+g+h+i+j+k+l+m+n+o+p+              ",
"  q+r+s+t+u+c+v+w+x+b+y+z+A+B+C+D+              ",
"  E+F+G+H+I+J+J+K+9+L+n+M+N+O+P+_               ",
"      _ Q+R+S+T+U+V+W+p+X+Y+_                   ",
"                                                ",
"                                                "};
