/* XPM */
static char * winlist_xpm[] = {
"20 20 176 2",
"  	c None",
". 	c #4A4AAD",
"+ 	c #6D6DD9",
"@ 	c #7F7FDB",
"# 	c #7575B3",
"$ 	c #2B2B93",
"% 	c #5252F1",
"& 	c #6363F1",
"* 	c #7575F1",
"= 	c #8888F1",
"- 	c #9A9AF1",
"; 	c #AAAAF1",
"> 	c #7E7EA5",
", 	c #1A1A6F",
"' 	c #4040F1",
") 	c #4F4FF1",
"! 	c #5F5FF1",
"~ 	c #7070F1",
"{ 	c #8282F1",
"] 	c #9494F1",
"^ 	c #A4A4F1",
"/ 	c #B2B2F1",
"( 	c #676784",
"_ 	c #2D2DDF",
": 	c #3C3CF1",
"< 	c #8C8C98",
"[ 	c #7676C8",
"} 	c #6969F1",
"| 	c #7A7AF1",
"1 	c #8E8EEB",
"2 	c #B3B3B9",
"3 	c #A8A8F1",
"4 	c #AEAEE9",
"5 	c #2B2BF1",
"6 	c #4F4FD3",
"7 	c #BEBE51",
"8 	c #7D7DB6",
"9 	c #ABAB7F",
"0 	c #BDBD6E",
"a 	c #A6A6A7",
"b 	c #E5E538",
"c 	c #9C9CF1",
"d 	c #A7A7F1",
"e 	c #2B2B3D",
"f 	c #2626F1",
"g 	c #3232F1",
"h 	c #888892",
"i 	c #7777B6",
"j 	c #A2A282",
"k 	c #CBCB50",
"l 	c #9A9AAF",
"m 	c #C8C86D",
"n 	c #8E8EF1",
"o 	c #9999F1",
"p 	c #2A2A41",
"q 	c #2121E8",
"r 	c #6565B7",
"s 	c #5E5ECD",
"t 	c #929292",
"u 	c #ABAB78",
"v 	c #7A7AD2",
"w 	c #BFBF6B",
"x 	c #7F7FEF",
"y 	c #8787EE",
"z 	c #0D0D16",
"A 	c #12128A",
"B 	c #2525F1",
"C 	c #2F2FF1",
"D 	c #3939F1",
"E 	c #4444F1",
"F 	c #5A5AF1",
"G 	c #6464F1",
"H 	c #6E6EF1",
"I 	c #5A54A3",
"J 	c #000000",
"K 	c #2F21C0",
"L 	c #2727F1",
"M 	c #3030F1",
"N 	c #3A3AF1",
"O 	c #4343F1",
"P 	c #4D4DF1",
"Q 	c #5656F1",
"R 	c #6B5CD3",
"S 	c #A2525C",
"T 	c #AB3E43",
"U 	c #613094",
"V 	c #332BDD",
"W 	c #3030F0",
"X 	c #3838F1",
"Y 	c #4841E2",
"Z 	c #73469E",
"` 	c #B04C53",
" .	c #D35D5D",
"..	c #401C1C",
"+.	c #712121",
"@.	c #D44545",
"#.	c #BE4545",
"$.	c #9C3F3F",
"%.	c #803242",
"&.	c #9C3646",
"*.	c #AE3C3C",
"=.	c #C14646",
"-.	c #D65151",
";.	c #E35A5A",
">.	c #8F3A3A",
",.	c #D13535",
"'.	c #E54343",
").	c #DF4949",
"!.	c #D14D4D",
"~.	c #A44141",
"{.	c #D03C3C",
"].	c #D84242",
"^.	c #E04848",
"/.	c #E64E4E",
"(.	c #E75353",
"_.	c #D65050",
":.	c #E83434",
"<.	c #E83C3C",
"[.	c #E74444",
"}.	c #E54D4D",
"|.	c #C74A4A",
"1.	c #B53232",
"2.	c #E73E3E",
"3.	c #E74242",
"4.	c #E84646",
"5.	c #E84A4A",
"6.	c #E84E4E",
"7.	c #351111",
"8.	c #CB2222",
"9.	c #E82C2C",
"0.	c #E83535",
"a.	c #E83D3D",
"b.	c #E74646",
"c.	c #AA3939",
"d.	c #4D1111",
"e.	c #E83636",
"f.	c #E83A3A",
"g.	c #E83E3E",
"h.	c #E84141",
"i.	c #E84545",
"j.	c #752424",
"k.	c #E81F1F",
"l.	c #E82626",
"m.	c #E82D2D",
"n.	c #431414",
"o.	c #E22D2D",
"p.	c #E83232",
"q.	c #8A2020",
"r.	c #DE3737",
"s.	c #B13030",
"t.	c #D61212",
"u.	c #C21515",
"v.	c #480A0A",
"w.	c #BC2020",
"x.	c #E82E2E",
"y.	c #B72B2B",
"z.	c #AB1D1D",
"A.	c #D32626",
"B.	c #010000",
"C.	c #1D0606",
"D.	c #A72626",
"E.	c #E23636",
"F.	c #740606",
"G.	c #5B0606",
"H.	c #020000",
"I.	c #911515",
"J.	c #E82828",
"K.	c #430D0D",
"L.	c #6E0F0F",
"M.	c #8C1414",
"N.	c #521111",
"O.	c #240707",
"P.	c #630C0C",
"Q.	c #B21919",
"R.	c #450808",
"S.	c #380606",
"                . + @ #                 ",
"            $ % & * = - ; >             ",
"          , ' ) ! ~ { ] ^ / (           ",
"          _ : < [ } | 1 2 3 4           ",
"          5 6 7 8 9 0 a b c d e         ",
"          f g h i j k l m n o p         ",
"          q 5 r s t u v w x y z         ",
"          A B C D E ) F G H I J         ",
"            K L M N O P Q R S           ",
"            T U V W X Y Z `  ...        ",
"          +.@.#.$.%.&.*.=.-.;.>.        ",
"          ,.'.).!.~.{.].^./.(._.        ",
"          :.<.[.}.|.1.2.3.4.5.6.7.      ",
"        8.9.0.a.b.c.d.e.f.g.h.i.j.      ",
"        k.l.m.e.g.n.  o.p.q.r.a.s.      ",
"      t.u.v.w.x.y.J   z.A.B.C.D.E.      ",
"    F.G.H.  I.J.K.    L.M.      N.O.    ",
"            P.Q.J       R.              ",
"              S.                        ",
"                                        "};
